<svg width="512" height="512" viewBox="0 0 512 512" fill="none" xmlns="http://www.w3.org/2000/svg">
<path d="M252.704 502.72C207.264 502.72 166.304 492.8 129.824 472.96C93.984 452.48 65.824 424 45.344 387.52C24.864 350.4 14.624 306.88 14.624 256.96C14.624 206.4 25.184 162.56 46.304 125.44C67.424 88.32 96.224 59.84 132.704 40C169.184 19.52 210.144 9.27997 255.584 9.27997C301.024 9.27997 341.984 19.52 378.464 40C415.584 59.84 444.704 88.32 465.824 125.44C486.944 161.92 497.504 205.12 497.504 255.04C497.504 305.6 486.624 349.44 464.864 386.56C443.744 423.68 414.624 452.48 377.504 472.96C340.384 492.8 298.784 502.72 252.704 502.72ZM251.744 420.16C277.344 420.16 301.344 414.4 323.744 402.88C346.144 390.72 364.384 372.48 378.464 348.16C393.184 323.84 400.544 292.8 400.544 255.04C400.544 217.92 393.504 187.52 379.424 163.84C365.984 139.52 348.064 121.6 325.664 110.08C303.264 97.92 279.264 91.84 253.664 91.84C228.704 91.84 205.344 97.92 183.584 110.08C162.464 121.6 145.184 139.52 131.744 163.84C118.304 188.16 111.584 219.2 111.584 256.96C111.584 294.08 117.984 324.8 130.784 349.12C144.224 372.8 161.504 390.72 182.624 402.88C203.744 414.4 226.784 420.16 251.744 420.16Z" fill="#B59349"/>
</svg>
